/* XPM */
static char * close_tab_xpm[] = {
"14 11 10 1",
" 	c None",
".	c #979797",
"+	c #CBCBCB",
"@	c #A4A4A4",
"#	c #A2A2A2",
"$	c #D7D7D7",
"%	c #AFAFAF",
"&	c #A5A5A5",
"*	c #E6E6E6",
"=	c #B1B1B1",
"     .....    ",
"    .......   ",
"   .........  ",
"  ...+@.#+... ",
"  ...@$%$&... ",
"  ....%*=.... ",
"  ...#$=$@... ",
"  ...+&.@+... ",
"   .........  ",
"    .......   ",
"     .....    "};
