/* XPM */
static char * down_xpm[] = {
"17 17 2 1",
" 	c None",
".	c #979797",
"                 ",
"                 ",
"                 ",
"                 ",
"                 ",
"      .....      ",
"      .....      ",
"      ....       ",
"       ...       ",
"       ..        ",
"        .        ",
"                 ",
"                 ",
"                 ",
"                 ",
"                 ",
"                 "};
