/* XPM */
static char * left_xpm[] = {
"17 17 2 1",
" 	c None",
".	c #979797",
"                 ",
"                 ",
"                 ",
"                 ",
"                 ",
"                 ",
"          ..     ",
"        ....     ",
"      ......     ",
"       .....     ",
"         ...     ",
"                 ",
"                 ",
"                 ",
"                 ",
"                 ",
"                 "};
