/* XPM */
static char * pink_gnu_xpm[] = {
"49 48 582 2",
"  	c None",
". 	c #FFC0CB",
"+ 	c #DAA5AE",
"@ 	c #906D73",
"# 	c #6E5F62",
"$ 	c #474747",
"% 	c #5C5758",
"& 	c #73595D",
"* 	c #D6A1AB",
"= 	c #FBBDC8",
"- 	c #B88B93",
"; 	c #70595D",
"> 	c #A38C90",
", 	c #A28C90",
"' 	c #5C4549",
") 	c #B1858D",
"! 	c #DDA7B0",
"~ 	c #6B5458",
"{ 	c #8D8A8B",
"] 	c #C1C1C1",
"^ 	c #D9D9D9",
"/ 	c #939393",
"( 	c #717171",
"_ 	c #4D4D4D",
": 	c #323232",
"< 	c #808080",
"[ 	c #686465",
"} 	c #916D73",
"| 	c #ECB2BC",
"1 	c #E4ACB5",
"2 	c #F6B9C4",
"3 	c #C8979F",
"4 	c #544A4C",
"5 	c #8A8A8A",
"6 	c #BDBDBD",
"7 	c #8B8B8B",
"8 	c #CDCDCD",
"9 	c #C6C6C6",
"0 	c #D7D7D7",
"a 	c #7D666A",
"b 	c #FCBDC8",
"c 	c #BB8D95",
"d 	c #484445",
"e 	c #DBDBDB",
"f 	c #E2E2E2",
"g 	c #2B2B2B",
"h 	c #0F0F0F",
"i 	c #080808",
"j 	c #797979",
"k 	c #9D9D9D",
"l 	c #979797",
"m 	c #AFAFAF",
"n 	c #A6A6A6",
"o 	c #7C7C7C",
"p 	c #B5B5B5",
"q 	c #938D8E",
"r 	c #453F40",
"s 	c #D7A2AB",
"t 	c #FCBEC9",
"u 	c #86656B",
"v 	c #302426",
"w 	c #2A2022",
"x 	c #513D40",
"y 	c #A57C84",
"z 	c #FEC0CA",
"A 	c #8F6C72",
"B 	c #6C585C",
"C 	c #9F9D9E",
"D 	c #888888",
"E 	c #696969",
"F 	c #414141",
"G 	c #5F5F5F",
"H 	c #1D1D1D",
"I 	c #161616",
"J 	c #2A2A2A",
"K 	c #666666",
"L 	c #EAEAEA",
"M 	c #696566",
"N 	c #C2939B",
"O 	c #747474",
"P 	c #FDFDFD",
"Q 	c #1F1F1F",
"R 	c #0A0A0A",
"S 	c #646464",
"T 	c #AAAAAA",
"U 	c #A5A5A5",
"V 	c #575555",
"W 	c #6B6062",
"X 	c #877578",
"Y 	c #474545",
"Z 	c #757373",
"` 	c #9B9B9B",
" .	c #9E9D9D",
"..	c #696868",
"+.	c #7D6065",
"@.	c #020101",
"#.	c #81232B",
"$.	c #A72D38",
"%.	c #641B22",
"&.	c #8E6B71",
"*.	c #FEBFCA",
"=.	c #99737A",
"-.	c #797777",
";.	c #A7A7A7",
">.	c #B0B0B0",
",.	c #A3A1A1",
"'.	c #514F50",
").	c #706E6F",
"!.	c #9E9E9E",
"~.	c #959595",
"{.	c #515151",
"].	c #090909",
"^.	c #434343",
"/.	c #DDDDDD",
"(.	c #848080",
"_.	c #C3939B",
":.	c #C19199",
"<.	c #696666",
"[.	c #FCFCFC",
"}.	c #575757",
"|.	c #000000",
"1.	c #0C0C0C",
"2.	c #514447",
"3.	c #B3878E",
"4.	c #F3B7C1",
"5.	c #AB8088",
"6.	c #C8969F",
"7.	c #EDB3BD",
"8.	c #161011",
"9.	c #782129",
"0.	c #DE3C4B",
"a.	c #902731",
"b.	c #020001",
"c.	c #A77E85",
"d.	c #CF9CA4",
"e.	c #8A686E",
"f.	c #DEA7B1",
"g.	c #C1919A",
"h.	c #504245",
"i.	c #BABABA",
"j.	c #444444",
"k.	c #1B1B1B",
"l.	c #DCDCDC",
"m.	c #DDA6B0",
"n.	c #584A4C",
"o.	c #E9E9E9",
"p.	c #9F9F9F",
"q.	c #D5D5D5",
"r.	c #A7A6A6",
"s.	c #9F7980",
"t.	c #FABCC7",
"u.	c #AF848B",
"v.	c #050102",
"w.	c #DA3B4A",
"x.	c #80222B",
"y.	c #171213",
"z.	c #B58890",
"A.	c #C5959D",
"B.	c #DAA4AE",
"C.	c #1B1415",
"D.	c #1A0B0C",
"E.	c #1F1719",
"F.	c #DAA4AD",
"G.	c #A17A81",
"H.	c #6F6F6F",
"I.	c #5D4D50",
"J.	c #C1929A",
"K.	c #929191",
"L.	c #FBFBFB",
"M.	c #636363",
"N.	c #C0C0C0",
"O.	c #98747A",
"P.	c #FDBEC9",
"Q.	c #9A747A",
"R.	c #69585B",
"S.	c #9A9293",
"T.	c #575354",
"U.	c #4A1419",
"V.	c #CE3846",
"W.	c #4E151B",
"X.	c #330E11",
"Y.	c #160608",
"Z.	c #1C080A",
"`.	c #59181E",
" +	c #1F080B",
".+	c #0C090A",
"++	c #230A0C",
"@+	c #B4313D",
"#+	c #CB3745",
"$+	c #C03441",
"%+	c #391013",
"&+	c #382A2C",
"*+	c #F8BBC5",
"=+	c #7A6367",
"-+	c #E3E3E3",
";+	c #74595D",
">+	c #ECECEC",
",+	c #564D4F",
"'+	c #F4B7C2",
")+	c #EAB0BA",
"!+	c #7B696C",
"~+	c #ACACAC",
"{+	c #FAFAFA",
"]+	c #DFDFDF",
"^+	c #4F4F4F",
"/+	c #55171D",
"(+	c #80232B",
"_+	c #4C141A",
":+	c #8E2630",
"<+	c #310D11",
"[+	c #D93B49",
"}+	c #DD3C4B",
"|+	c #5E1920",
"1+	c #5B191F",
"2+	c #D73A49",
"3+	c #BE3340",
"4+	c #140A0B",
"5+	c #D9A3AD",
"6+	c #EDB2BC",
"7+	c #8F898A",
"8+	c #727272",
"9+	c #858585",
"0+	c #635C5D",
"a+	c #FFFFFF",
"b+	c #E1E1E1",
"c+	c #7B7B7B",
"d+	c #A27A81",
"e+	c #EBB1BB",
"f+	c #6B5F61",
"g+	c #EFEFEF",
"h+	c #C2C2C2",
"i+	c #3A3A3A",
"j+	c #3E1115",
"k+	c #2C0C0F",
"l+	c #89252E",
"m+	c #9D2A35",
"n+	c #2B0C0F",
"o+	c #CD3745",
"p+	c #180708",
"q+	c #CE9BA4",
"r+	c #665054",
"s+	c #847578",
"t+	c #656565",
"u+	c #DFA8B2",
"v+	c #624E51",
"w+	c #DADADA",
"x+	c #020202",
"y+	c #962833",
"z+	c #110506",
"A+	c #2E0D10",
"B+	c #6E1E25",
"C+	c #AB2E3A",
"D+	c #A82D39",
"E+	c #010000",
"F+	c #A37E84",
"G+	c #1C1C1C",
"H+	c #EDEDED",
"I+	c #A3A3A3",
"J+	c #ADADAD",
"K+	c #262626",
"L+	c #616161",
"M+	c #87696E",
"N+	c #565656",
"O+	c #0C0304",
"P+	c #D13847",
"Q+	c #370F13",
"R+	c #23090C",
"S+	c #C43542",
"T+	c #481318",
"U+	c #C63643",
"V+	c #51161B",
"W+	c #271D1F",
"X+	c #9F7A80",
"Y+	c #989898",
"Z+	c #010101",
"`+	c #4A4A4A",
" @	c #787878",
".@	c #545454",
"+@	c #242424",
"@@	c #816267",
"#@	c #BFBFBF",
"$@	c #060606",
"%@	c #1C0709",
"&@	c #752028",
"*@	c #6F1E25",
"=@	c #1A080A",
"-@	c #767676",
";@	c #7F7F7F",
">@	c #211112",
",@	c #2A0B0E",
"'@	c #290B0E",
")@	c #350E12",
"!@	c #D83A49",
"~@	c #B6313D",
"{@	c #090707",
"]@	c #4C4647",
"^@	c #E1A9B3",
"/@	c #232323",
"(@	c #828282",
"_@	c #606060",
":@	c #C7C7C7",
"<@	c #BD8F97",
"[@	c #9F787F",
"}@	c #6D6D6D",
"|@	c #040404",
"1@	c #595959",
"2@	c #8C8C8C",
"3@	c #5A5A5A",
"4@	c #FEFEFE",
"5@	c #6E6E6E",
"6@	c #5E5E5E",
"7@	c #332627",
"8@	c #87242E",
"9@	c #C63543",
"0@	c #88252E",
"a@	c #130506",
"b@	c #111111",
"c@	c #BCBCBC",
"d@	c #968285",
"e@	c #FEC0CB",
"f@	c #604C4F",
"g@	c #818181",
"h@	c #6B5C5F",
"i@	c #F0B5BF",
"j@	c #AB8188",
"k@	c #817D7E",
"l@	c #A2A2A2",
"m@	c #3F3F3F",
"n@	c #494949",
"o@	c #E5E5E5",
"p@	c #D4D4D4",
"q@	c #B4B4B4",
"r@	c #E4E4E4",
"s@	c #464646",
"t@	c #3E3E3E",
"u@	c #785F63",
"v@	c #C5949D",
"w@	c #8E797C",
"x@	c #675A5C",
"y@	c #6F5459",
"z@	c #644F53",
"A@	c #706F70",
"B@	c #050505",
"C@	c #F1F1F1",
"D@	c #454545",
"E@	c #CACACA",
"F@	c #B3B3B3",
"G@	c #5C5C5C",
"H@	c #CBCBCB",
"I@	c #969696",
"J@	c #393939",
"K@	c #827779",
"L@	c #A3878C",
"M@	c #847E7F",
"N@	c #6D6062",
"O@	c #88666C",
"P@	c #CECECE",
"Q@	c #737373",
"R@	c #D1D1D1",
"S@	c #F2F2F2",
"T@	c #030303",
"U@	c #B7B7B7",
"V@	c #F9F9F9",
"W@	c #8F8F8F",
"X@	c #CFCFCF",
"Y@	c #BEBEBE",
"Z@	c #A4A4A4",
"`@	c #535353",
" #	c #7E7E7E",
".#	c #848484",
"+#	c #D4A0A9",
"@#	c #727070",
"##	c #F4F4F4",
"$#	c #2E2E2E",
"%#	c #171717",
"&#	c #F0F0F0",
"*#	c #868686",
"=#	c #D8D8D8",
"-#	c #F7F7F7",
";#	c #9C9C9C",
">#	c #1E1E1E",
",#	c #D0D0D0",
"'#	c #C5C5C5",
")#	c #F5F5F5",
"!#	c #282828",
"~#	c #2C2C2C",
"{#	c #7B7677",
"]#	c #EEB3BD",
"^#	c #806569",
"/#	c #363636",
"(#	c #C4C4C4",
"_#	c #898989",
":#	c #8D8D8D",
"<#	c #383838",
"[#	c #B9B9B9",
"}#	c #EAB1BB",
"|#	c #6A5F61",
"1#	c #AEAEAE",
"2#	c #4C4C4C",
"3#	c #676767",
"4#	c #686868",
"5#	c #3D3D3D",
"6#	c #141414",
"7#	c #070707",
"8#	c #D6D6D6",
"9#	c #58494C",
"0#	c #4A4848",
"a#	c #E8E8E8",
"b#	c #F6F6F6",
"c#	c #252525",
"d#	c #303030",
"e#	c #7A7A7A",
"f#	c #191919",
"g#	c #B6B6B6",
"h#	c #6B6B6B",
"i#	c #D2D2D2",
"j#	c #F3F3F3",
"k#	c #6E6365",
"l#	c #E5ACB6",
"m#	c #B2868E",
"n#	c #6B6163",
"o#	c #C9C9C9",
"p#	c #B1B1B1",
"q#	c #3C3C3C",
"r#	c #A1A1A1",
"s#	c #C3C3C3",
"t#	c #EBEBEB",
"u#	c #2D2D2D",
"v#	c #BBBBBB",
"w#	c #EEEEEE",
"x#	c #AAA9A9",
"y#	c #756164",
"z#	c #E6ADB7",
"A#	c #E7AEB8",
"B#	c #7D5E64",
"C#	c #4C4A4A",
"D#	c #949494",
"E#	c #6C6C6C",
"F#	c #1F1B1C",
"G#	c #85646A",
"H#	c #D29EA8",
"I#	c #674E52",
"J#	c #5D5D5D",
"K#	c #434242",
"L#	c #938E8F",
"M#	c #52484A",
"N#	c #F5B8C3",
"O#	c #947076",
"P#	c #F8F8F8",
"Q#	c #555252",
"R#	c #CF9CA5",
"S#	c #6D5B5E",
"T#	c #2D2828",
"U#	c #C997A0",
"V#	c #363334",
"W#	c #2B2929",
"X#	c #DBA5AE",
"Y#	c #826369",
"Z#	c #474142",
"`#	c #827C7D",
" $	c #4E4849",
".$	c #695558",
"+$	c #F4B8C2",
"@$	c #E0E0E0",
"#$	c #5B5B5B",
"$$	c #E7E7E7",
"%$	c #585858",
"&$	c #4F4345",
"*$	c #4D4143",
"=$	c #52494B",
"-$	c #D9A3AC",
";$	c #514043",
">$	c #E6E6E6",
",$	c #342F30",
"'$	c #3E3D3D",
")$	c #D3D3D3",
"!$	c #ABABAB",
"~$	c #72565B",
"{$	c #3E393A",
"]$	c #5B4549",
"^$	c #B68991",
"/$	c #F3B7C2",
"($	c #262323",
"_$	c #343434",
":$	c #514B4C",
"<$	c #74575C",
"[$	c #34272A",
"}$	c #3A2C2E",
"|$	c #838383",
"1$	c #C8C8C8",
"2$	c #F1B5C0",
"3$	c #C4939C",
"4$	c #EEB3BE",
"5$	c #171112",
"6$	c #694F54",
"7$	c #929292",
"8$	c #3C3637",
"9$	c #CD9AA3",
"0$	c #161112",
"a$	c #99747A",
"b$	c #4D4B4B",
"c$	c #A8A8A8",
"d$	c #473F40",
"e$	c #846469",
"f$	c #463538",
"g$	c #35292B",
"h$	c #908E8E",
"i$	c #B78991",
"j$	c #AC8189",
"k$	c #75585D",
"l$	c #999999",
"m$	c #909090",
"n$	c #4F4E4F",
"o$	c #B4888F",
"p$	c #785A60",
"q$	c #E0A9B2",
"r$	c #775A5F",
"s$	c #555555",
"t$	c #1E1618",
"u$	c #C6959D",
"v$	c #EDB2BD",
"w$	c #382A2D",
"x$	c #4C393C",
"y$	c #867175",
"z$	c #60484C",
"A$	c #B4878F",
"B$	c #5B474A",
"C$	c #564145",
"D$	c #D49FA8",
"E$	c #140F10",
"F$	c #272727",
"G$	c #323031",
"H$	c #474041",
"I$	c #6B5B5D",
"J$	c #A97F87",
"K$	c #9B757C",
"L$	c #21191A",
"M$	c #DEDEDE",
"N$	c #424242",
"O$	c #9E777E",
"P$	c #533F42",
"Q$	c #936F75",
"R$	c #1A1A1A",
"S$	c #B1868D",
"T$	c #151213",
"U$	c #6D565A",
"V$	c #F7BAC4",
"W$	c #7C5D63",
"X$	c #DFA8B1",
"Y$	c #AD828A",
"Z$	c #151011",
"`$	c #88676C",
" %	c #EAB0BB",
".%	c #241B1C",
"+%	c #5C5254",
"@%	c #878787",
"#%	c #323131",
"$%	c #654C50",
"%%	c #E6AEB7",
"&%	c #9D767D",
"*%	c #C2929B",
"=%	c #584246",
"-%	c #B2B2B2",
";%	c #413134",
">%	c #4E3A3E",
",%	c #D8A3AC",
"'%	c #5F484C",
")%	c #C09099",
"!%	c #916D74",
"~%	c #C7969E",
"{%	c #36292B",
"]%	c #574145",
"^%	c #E3ABB5",
"/%	c #E0A8B2",
"(%	c #76595E",
"_%	c #694F53",
":%	c #271E1F",
"<%	c #785A5F",
"[%	c #3B3A3A",
"}%	c #222222",
"|%	c #5C4B4E",
"1%	c #F1B6C0",
". . . . . . + @ # $ $ $ $ $ % & * . . . . . . . . . . . . . . . . . = - ; > > , ' ) + . . . . . . ",
". . . . ! ~ { ] ^ / ( ( _ : ( < [ } | 1 2 . . . . . . . . . . . . 3 4 5 6 7 8 8 9 0 { a ! . . . . ",
". . b c d e f g h i ( j k l m n o p q r s t u v w x y z . . . A B C D E F G H H I J K L M N . . . ",
". . c O P $ Q R S T U V W X Y Z `  ...+.. @ @.#.$.%.@.&.*.. . =.-.;.>.` ,.'.).!.~.{.].^./.(._.. . ",
". :.<.[.}.|.1.` n 2.3.. . . . 4.5.6.. . 7.8.9.0.0.0.a.b.c.. . . d.5.e.' f.. . g.h.i.j.|.k.l.<.m.. ",
". n.o.p.|.|.q.r.s.t.. . . . . . . . . . u.v.w.0.0.0.0.x.y.z.A.B.} C.D.|.E.F.. . = G.k H.|.^.o.I.. ",
"J.K.L.M.|.g N.O.. . . . . . . . P.Q.R.S.T.U.0.0.V.W.X.Y.Z.`. +.+++@+#+$+%+&+. . . *+=+T 1.Q -+K.J.",
";+>+N.|.|.0 ,+'+. . . . . . . )+!+~+{+]+^+/+0.0.(+_+:+<+[+0.}+|+1+2+0.0.3+4+5+. . . 6+7+8+|.9+>+;+",
"0+a+b+|.|.c+d+. . . . . . . e+f+g+h+i+|.|./+0.0.$.j+k+l+0.0.0.m+|.n+o+0.0.p+q+. . . . r+{.|.9+a+s+",
"< a+^+|.: t+u+. . . . . . . v+w+H.x+|.|.|./+0.0.}+y+z+l+0.0.0.m+A+B+C+0.D+E+q+. . . . F+N.x+G+H+$ ",
"I+a+J+|.K+L+u+. . . . . *.M+] N+|.|.|.|.|.O+P+0.0.V.Q+R+S+0.}+T+v.Q+U+0.V+W+t.. . . . X+Y+Z+`+a+ @",
"I+a+.@|.+@L+u+. . . . t @@#@!.$@|.|.|.|.|.|.%@&@*@=@-@;@>@,@'@)@@+!@0.~@{@]@^@. . . . F+~+|./@H+(@",
"_@a+:@|.I < <@. . . . [@}@I+|@|.|.|.Z+x+x+x+x+1@2@3@4@a+w+5@6@7@8@9@0@a@b@c@d@e@. . . f@E |.n a+g@",
"$ a+S |.|.k h@i@. . j@k@l@|.|.m@n@5 /.a+a+o@a+a+a+p@H.q@>.>.a+r@s@t@n@n@x+Q ] u@. . v@g@{.|.6@a+$ ",
"w@L.o@I |.< J+x@y@z@A@/ B@m@9 [.a+a+C@i.D@K a+a+E@H.8 F@G@3@4@H@I@` a+a+k $@J@I@K@L@M@D $@|.J+L.N@",
"O@]+P@m@|.|.Q@R@0 p `+|.G S@a+a+a+a+`+( T@U@a+a+V@5 W@a+O S X@|.Y@Z@P@a+a+`@|.h  #-+.#Q |.I /.]+O@",
"+#@###$#|.|.|.B@G %#|.i+&#a+a+a+a+` }@j *#=#K !.7 a+*#-#a+a+;#>#p.,#'#a+a+)#!#|.|.~#|.|.|.i+E@{#]#",
". ^#9 U@/#|@|.|.|.|.h (#a+a+a+a+l.9 a+a+a+b+a+a+7 ^ -+.#a+a+^._#a+H@0 a+a+a+:#|.|.|.|.|.<#] [#&.. ",
". }#|#>+1#2#|.|.|.|.3#a+a+a+a+a+L.a+L a+g+4#g 1./@F@a+/ a+a+k 5#1.6#:@a+a+a+r@|.|.|.7#^+8#C@9#P.. ",
". . F.0#a#b#;#D@c#|.c@a+a+a+a+a+a+a+I+a+o.d#e#|.< a+a+a+a+a+&#f#|.L+g#a+a+a+[.h#|.h#] i#j#k#l#. . ",
". . . m#n#o#P >+p#<#{+a+a+a+a+a+a+[#n a+a+F@O q#r#s#a+a+a+a+a+] q#^+R@a+a+a+a+t#u#v#w#x#y#z#. . . ",
". . . . A#B#C#D#E#*#a+a+a+a+a+a+a+K L.a+a+a+a+[#w+I+a+a+a+a+a+a+8+k U a+a+a+a+a+L F#G#H#. . . . . ",
". . . . . . b m#I#[#a+a+a+a+a+a+8#Z+L.a+a+a+a+a+a+4@a+a+a+a+a+a+t#J#K#L#o@a+a+a+a+M#N#. . . . . . ",
". . . . . . . . O#P a+a+a+a+a+P#_@3@t#a+a+a+a+a+a+a+a+a+a+a+a+a+a+2@Q#R#S#9+q.a+a+T T#U#. . . . . ",
". . . . . . . A#V#4@a+a+a+a+V@S 2@X@r#a+a+a+a+a+a+g+Q@$ $ W@g+a+a+H+W#X#7.A.Y#Z#`# $.$+$. . . . . ",
". . . . . . . @ !.a+a+a+a+@$#$2@a+a+$$a+a+a+a+a+a+N+Q@l@)#=#%$i.a+a+]+&$*$=$F.. . . . . . . . . . ",
". . . . . . -$;$>$a+a+] H.,$'$a+a+a+a+a+a+a+a+a+a+<#<#)$!$C@4@2@;#a+a+a+a+p@~$. . . . . . . . . . ",
". . . . . m.{$l.a+-@b@]$^$/$($>+a+a+a+a+V@o#H+a+a+;.n 4#]._$=#a+]+,#a+a+a+p@~$. . . . . . . . . . ",
". . . . . _.^.:$K+<$[$+#. . }$/.a+a+a+a+a#D a#C@a+P j#,#p o@|$a+a+a+a+a+a+1$~$. . . . . . . . . . ",
". . . . . 2$3$4$3$. 5$+#. . 6$^ a+a+a+a+a+a+H+E#f :@a+a+a+a+7$a+a+a+a+a+b+8$9$. . . . . . . . . . ",
". . . . . . . . . . 0$+#. . a$b$a+a+a+a+a+a+a+^ 8+^ a+a+a+a+a+a+a+a+a+c$,$R#. . . . . . . . . . . ",
". . . . . . . . . . 0$+#. . . d$a+a+a+a+a+a+a+a+E /.a+a+a+a+a+a+a+j#(@ #e$. . . . . . . . . . . . ",
". . . . . . . . . . f$+#. . . g$}@j#a+a+a+a+a+a+8#^+a+a+a+a+a+a+a+a+a+a+h$i$. . . . . . . . . . . ",
". . . . . . . . . . ~$j$. . . l#k$K P@a+a+a+a+a+a+1#l$P#a+a+a+>+=#m$m$m$n$) . . . . . . . . . . . ",
". . . . . . . . . . o$p$. . . . q$r$S a+a+a+a+a+a+a+J+^+n@n@n@3@3@3@s$t$u$. . . . . . . . . . . . ",
". . . . . . . . . . v$w$. . . . . x$^ a+a+a+a+a+a+a+a+4@P P P a+a+a+{+y$. . . . . . . . . . . . . ",
". . . . . . . . . . . z$A$. . . . &.{.U o@a+a+a+a+a+a+a+a+a+a+a+a+a+j#B$. . . . . . . . . . . . . ",
". . . . . . . . . . . q$C$. . . . . D$E$F$P#a+a+a+a+a+w#7$;@~#~#G$H$I$v@. . . . . . . . . . . . . ",
". . . . . . . . . . . . J$K$. . . . . _.L$#@M$p a+a+a+0 o {.U N$O$. . . . . . . . . . . . . . . . ",
". . . . . . . . . . . . t P$* . . . . Q$R$6 |.4#^ a+a+a+a+a+a+O S$. . . . . . . . . . . . . . . . ",
". . . . . . . . . . . . . t.<$s . . . A$T$M.|.|.p a+a+a+a+{+&#{+U$. . . . . . . . . . . . . . . . ",
". . . . . . . . . . . . . . V$W$X$. . . Y$Z$|.1.< a+a+a+a+[#m n `$. . . . . . . . . . . . . . . . ",
". . . . . . . . . . . . . . . .  %. . . . A#.%+%i @%L.[.N.J@#%$%%%. . . . . . . . . . . . . . . . ",
". . . . . . . . . . . . . . . . . . . . . &%C.*%=%|.-%G |.|.;%. . . . . . . . . . . . . . . . . . ",
". . . . . . . . . . . . . . . . . . . . | >%,%2$t$|.J#x+|.|.|.'%)%7.2$. . . . . . . . . . . . . . ",
". . . . . . . . . . . . . . . . . . . . . !%. ~%{%{@R Z+|.|.|.|.|.]%^%. . . . . . . . . . . . . . ",
". . . . . . . . . . . . . . . . . . . . . . . /%(%_%|.|.|.i |.|.:%,%. . . . . . . . . . . . . . . ",
". . . . . . . . . . . . . . . . . . . . . . . . . = <%[%2#}%|%' O$1%. . . . . . . . . . . . . . . "};
